HIERARCHY
ROOT Hips
{
	OFFSET 0.00000 0.00000 0.00000
	CHANNELS 6 Xposition Yposition Zposition Zrotation Yrotation Xrotation 
	JOINT LHipJoint
	{
		OFFSET 0 0 0
		CHANNELS 3 Zrotation Yrotation Xrotation
		JOINT LeftUpLeg
		{
			OFFSET 1.57358 -1.76629 0.73362
			CHANNELS 3 Zrotation Yrotation Xrotation
			JOINT LeftLeg
			{
				OFFSET 2.40600 -6.61045 0.00000
				CHANNELS 3 Zrotation Yrotation Xrotation
				JOINT LeftFoot
				{
					OFFSET 2.66168 -7.31291 0.00000
					CHANNELS 3 Zrotation Yrotation Xrotation
					JOINT LeftToeBase
					{
						OFFSET 0.20870 -0.57341 2.12506
						CHANNELS 3 Zrotation Yrotation Xrotation
						End Site
						{
							OFFSET 0.00000 -0.00000 1.10557
						}
					}
				}
			}
		}
	}
	JOINT RHipJoint
	{
		OFFSET 0 0 0
		CHANNELS 3 Zrotation Yrotation Xrotation
		JOINT RightUpLeg
		{
			OFFSET -1.49299 -1.76629 0.73362
			CHANNELS 3 Zrotation Yrotation Xrotation
			JOINT RightLeg
			{
				OFFSET -2.43663 -6.69460 0.00000
				CHANNELS 3 Zrotation Yrotation Xrotation
				JOINT RightFoot
				{
					OFFSET -2.62959 -7.22474 0.00000
					CHANNELS 3 Zrotation Yrotation Xrotation
					JOINT RightToeBase
					{
						OFFSET -0.25784 -0.70841 2.21862
						CHANNELS 3 Zrotation Yrotation Xrotation
						End Site
						{
							OFFSET -0.00000 -0.00000 1.16452
						}
					}
				}
			}
		}
	}
	JOINT LowerBack
	{
		OFFSET 0 0 0
		CHANNELS 3 Zrotation Yrotation Xrotation
		JOINT Spine
		{
			OFFSET -0.00034 2.12399 -0.25450
			CHANNELS 3 Zrotation Yrotation Xrotation
			JOINT Spine1
			{
				OFFSET 0.05594 2.14379 -0.03318
				CHANNELS 3 Zrotation Yrotation Xrotation
				JOINT Neck
				{
					OFFSET 0 0 0
					CHANNELS 3 Zrotation Yrotation Xrotation
					JOINT Neck1
					{
						OFFSET -0.09835 1.62725 0.24211
						CHANNELS 3 Zrotation Yrotation Xrotation
						JOINT Head
						{
							OFFSET 0.10849 1.66041 -0.22648
							CHANNELS 3 Zrotation Yrotation Xrotation
							End Site
							{
								OFFSET 0.04385 1.68267 -0.10541
							}
						}
					}
				}
				JOINT LeftShoulder
				{
					OFFSET 0 0 0
					CHANNELS 3 Zrotation Yrotation Xrotation
					JOINT LeftArm
					{
						OFFSET 3.29108 0.79398 -0.68179
						CHANNELS 3 Zrotation Yrotation Xrotation
						JOINT LeftForeArm
						{
							OFFSET 5.15310 -0.00000 -0.00000
							CHANNELS 3 Zrotation Yrotation Xrotation
							JOINT LeftHand
							{
								OFFSET 3.75138 -0.00000 -0.00000
								CHANNELS 3 Zrotation Yrotation Xrotation
								JOINT LeftFingerBase
								{
									OFFSET 0 0 0
									CHANNELS 3 Zrotation Yrotation Xrotation
									JOINT LeftHandIndex1
									{
										OFFSET 0.52917 -0.00000 0.00000
										CHANNELS 3 Zrotation Yrotation Xrotation
										End Site
										{
											OFFSET 0.42663 -0.00000 0.00000
										}
									}
								}
								JOINT LThumb
								{
									OFFSET 0 0 0
									CHANNELS 3 Zrotation Yrotation Xrotation
									End Site
									{
										OFFSET 0.43315 -0.00000 0.43315
									}
								}
							}
						}
					}
				}
				JOINT RightShoulder
				{
					OFFSET 0 0 0
					CHANNELS 3 Zrotation Yrotation Xrotation
					JOINT RightArm
					{
						OFFSET -3.07414 1.06285 -0.44338
						CHANNELS 3 Zrotation Yrotation Xrotation
						JOINT RightForeArm
						{
							OFFSET -5.29613 -0.00000 0.00000
							CHANNELS 3 Zrotation Yrotation Xrotation
							JOINT RightHand
							{
								OFFSET -3.76144 -0.00000 -0.00000
								CHANNELS 3 Zrotation Yrotation Xrotation
								JOINT RightFingerBase
								{
									OFFSET 0 0 0
									CHANNELS 3 Zrotation Yrotation Xrotation
									JOINT RightHandIndex1
									{
										OFFSET -0.74732 -0.00000 0.00000
										CHANNELS 3 Zrotation Yrotation Xrotation
										End Site
										{
											OFFSET -0.60251 -0.00000 0.00000
										}
									}
								}
								JOINT RThumb
								{
									OFFSET 0 0 0
									CHANNELS 3 Zrotation Yrotation Xrotation
									End Site
									{
										OFFSET -0.61171 -0.00000 0.61171
									}
								}
							}
						}
					}
				}
			}
		}
	}
}
MOTION
Frames: 6
Frame Time: .0083333
1.856800 17.492300 2.061900 4.533100 -45.863100 -3.495700 0.000000 0.000000 0.000000 -22.960000 -10.186600 -15.366300 1.531000 7.811900 22.144300 -0.361900 -12.348400 -2.251700 0.016900 0.838200 2.303700 0.000000 0.000000 0.000000 20.662700 3.958200 -9.739600 -10.567400 -17.716800 61.368500 -1.481900 1.512400 23.594400 -1.151300 -6.812800 19.161900 -1.607400 2.408000 7.252400 1.004900 3.104300 0.621000 1.620700 1.569700 -3.562300 -9.404300 -2.741400 -16.116300 4.822600 -2.631800 23.167400 2.928000 -1.519700 10.259300 -0.000000 0.000000 0.000000 -91.135000 3.631200 9.269400 10.688500 -17.809300 -1.679400 -0.000000 -0.000000 15.178900 13.119900 25.510400 5.732100 -7.125000 0.000000 -0.000000 -17.728200 55.194300 -4.542100 -0.000000 0.000000 0.000000 88.055300 -1.605700 13.606100 -17.187200 27.103900 -4.172300 0.000000 0.000000 4.926800 -13.467900 13.138800 -3.116000 7.125000 -0.000000 -0.000000 9.545700 -16.601200 6.512400
1.763800 17.514500 2.186700 4.832600 -46.229200 -3.872700 0.000000 0.000000 0.000000 -23.373300 -9.906900 -15.009400 1.632500 8.054600 22.880100 -0.331200 -12.792800 -3.648800 0.000400 -0.133700 -0.367400 0.000000 0.000000 0.000000 20.117500 4.563200 -10.923600 -11.167400 -18.016000 63.324100 -1.466400 0.322900 23.025700 -1.384600 -7.445400 21.041900 -1.876600 2.267100 7.286900 1.114100 2.898300 0.620000 1.904900 1.472600 -3.593200 -9.624700 -2.633000 -15.819200 4.723800 -2.423700 23.016200 2.956000 -1.456500 10.134500 -0.000000 -0.000000 0.000000 -91.264200 3.777200 9.648500 10.713500 -17.847800 -1.687100 -0.000000 -0.000000 15.152800 12.988200 25.763200 5.724900 -7.125000 0.000000 -0.000000 -18.003300 55.410200 -4.711700 -0.000000 -0.000000 0.000000 87.708700 -1.955200 14.240000 -17.202000 27.123300 -4.179000 0.000000 0.000000 4.727900 -13.397600 13.143400 -3.100200 7.125000 -0.000000 -0.000000 9.593900 -16.601400 6.546100
1.668400 17.611100 2.302800 5.434100 -46.357200 -4.381100 0.000000 0.000000 0.000000 -25.372300 -4.990600 -14.880700 1.810900 8.460500 24.121800 0.248700 -13.784600 -12.437600 2.991000 -10.680500 -31.209700 0.000000 0.000000 0.000000 19.438500 4.589100 -12.198900 -11.621800 -18.226200 64.785000 -1.238300 0.848500 21.355800 -0.974600 -6.284900 17.613200 -2.480300 2.100500 7.368700 1.213700 2.629900 0.538600 2.371200 1.352400 -3.742500 -9.827800 -2.466400 -15.406800 4.511900 -2.125600 22.858300 2.952100 -1.363700 9.977500 0.000000 0.000000 0.000000 -91.343100 3.876300 10.543400 10.650800 -17.751000 -1.667900 -0.000000 -0.000000 14.694900 13.145700 25.762900 5.796300 -7.125000 0.000000 -0.000000 -17.845100 55.440800 -4.681800 0.000000 0.000000 0.000000 87.321400 -2.354200 14.567200 -17.207900 27.131000 -4.181700 0.000000 0.000000 4.901000 -13.317500 13.354400 -3.129500 7.125000 -0.000000 -0.000000 9.646300 -16.394100 6.627000
1.578200 17.626900 2.411700 5.813300 -46.397100 -4.636400 0.000000 0.000000 0.000000 -25.965700 -4.228600 -14.687500 1.920000 8.697300 24.853100 0.372200 -13.502100 -13.532700 3.148800 -10.932100 -32.051300 0.000000 0.000000 0.000000 18.933900 4.555900 -13.767500 -12.149700 -18.453200 66.462600 -0.961100 0.848900 18.850900 -0.834900 -5.829000 16.289000 -2.724500 2.122100 7.510200 0.984500 2.626100 0.485200 2.265300 1.355000 -3.877100 -9.260900 -2.487800 -15.392900 4.222400 -2.236000 22.896600 2.739900 -1.399800 9.985800 0.000000 -0.000000 0.000000 -90.720800 3.548300 11.579400 10.495600 -17.511000 -1.620900 -0.000000 -0.000000 14.527100 13.514400 25.285400 5.861400 -7.125000 0.000000 -0.000000 -17.208100 55.055200 -4.343900 0.000000 -0.000000 0.000000 87.771100 -2.457800 13.842800 -17.135500 27.036100 -4.148800 0.000000 0.000000 5.273800 -13.173500 13.610100 -3.152500 7.125000 -0.000000 -0.000000 9.741800 -16.146500 6.747800
1.488600 17.621700 2.525600 5.592300 -46.489900 -4.543700 0.000000 0.000000 0.000000 -25.680600 -4.909600 -14.240700 1.941700 8.743500 24.996200 0.268600 -13.521800 -12.503900 2.686000 -10.168600 -29.524400 0.000000 0.000000 0.000000 18.891900 4.684800 -15.152400 -12.657000 -18.654800 68.056800 -0.699000 0.403100 15.948700 -0.958200 -6.233100 17.462200 -2.481600 2.041500 7.649300 0.862600 2.530600 0.510800 2.009200 1.302000 -3.906200 -8.806300 -2.471200 -15.684800 4.101500 -2.279500 23.123200 2.617100 -1.396000 10.116900 -0.000000 -0.000000 0.000000 -90.218600 3.131700 11.570600 10.426700 -17.404300 -1.600200 -0.000000 -0.000000 15.255000 13.271400 25.045700 5.702100 -7.125000 0.000000 -0.000000 -17.320100 54.778400 -4.255300 -0.000000 -0.000000 0.000000 88.205100 -2.434400 13.373700 -17.096900 26.985400 -4.131200 0.000000 0.000000 5.416900 -13.259400 13.162300 -3.071500 7.125000 -0.000000 -0.000000 9.688600 -16.591900 6.614700
1.402900 17.606300 2.637800 5.265200 -46.533600 -4.411000 0.000000 0.000000 0.000000 -25.165900 -6.152500 -13.093100 1.741300 8.305000 23.644200 -0.001300 -13.852500 -9.708600 1.619900 -8.025000 -22.789900 0.000000 0.000000 0.000000 18.895600 4.681800 -16.661900 -13.157400 -18.838300 69.613700 -0.476000 0.270900 13.135300 -0.884100 -5.993900 16.766800 -2.274300 1.762800 7.706500 1.011300 2.181600 0.551000 2.085600 1.125500 -3.875000 -8.929100 -2.319400 -15.629900 4.018100 -2.019200 23.119600 2.642700 -1.298000 10.087400 -0.000000 -0.000000 0.000000 -90.281500 2.878200 10.874100 10.481500 -17.489200 -1.616700 -0.000000 -0.000000 16.222400 13.132500 25.471700 5.729700 -7.125000 0.000000 -0.000000 -17.693800 55.159900 -4.517900 -0.000000 -0.000000 0.000000 88.054300 -2.595500 13.825100 -17.209100 27.132600 -4.182200 0.000000 0.000000 5.258300 -13.917500 11.972800 -2.942700 7.125000 -0.000000 -0.000000 9.251900 -17.750600 6.070700
